<?xml version="1.0" encoding="utf-8"?>
<!-- Generator: Adobe Illustrator 16.0.0, SVG Export Plug-In . SVG Version: 6.00 Build 0)  -->
<!DOCTYPE svg PUBLIC "-//W3C//DTD SVG 1.1//EN" "http://www.w3.org/Graphics/SVG/1.1/DTD/svg11.dtd">
<svg version="1.1" id="Calque_1" xmlns="http://www.w3.org/2000/svg" xmlns:xlink="http://www.w3.org/1999/xlink" x="0px" y="0px"
	 width="322.101px" height="50.489px" viewBox="0 0 322.101 50.489" enable-background="new 0 0 322.101 50.489"
	 xml:space="preserve">
<g>
	<g>
		<g>
			<path d="M31.41,17.393c0,4.954-1.623,8.75-4.867,11.389c-3.245,2.641-7.864,3.959-13.855,3.959H7.755v17.749H0V3.05h13.66
				c5.928,0,10.368,1.213,13.321,3.635C29.934,9.107,31.41,12.677,31.41,17.393z M7.755,26.219h4.121c3.98,0,6.9-0.692,8.761-2.077
				c1.86-1.384,2.79-3.548,2.79-6.489c0-2.727-0.833-4.759-2.498-6.101c-1.666-1.341-4.262-2.012-7.788-2.012H7.755V26.219z"/>
			<path d="M58.561,50.489l-1.525-4.997h-0.259c-1.731,2.187-3.472,3.672-5.225,4.463c-1.752,0.789-4.002,1.184-6.75,1.184
				c-3.526,0-6.278-0.951-8.257-2.855c-1.98-1.902-2.969-4.596-2.969-8.08c0-3.699,1.373-6.489,4.121-8.371
				c2.747-1.882,6.933-2.909,12.557-3.083l6.198-0.194v-1.914c0-2.293-0.535-4.008-1.606-5.145
				c-1.071-1.134-2.731-1.703-4.981-1.703c-1.839,0-3.601,0.271-5.289,0.812c-1.688,0.541-3.31,1.18-4.867,1.915l-2.466-5.452
				c1.947-1.016,4.078-1.789,6.393-2.32c2.314-0.529,4.499-0.794,6.555-0.794c4.564,0,8.008,0.995,10.334,2.984
				c2.325,1.991,3.488,5.117,3.488,9.378v24.174H58.561z M47.204,45.298c2.769,0,4.991-0.773,6.668-2.32
				c1.676-1.546,2.515-3.715,2.515-6.506v-3.114l-4.607,0.194c-3.591,0.13-6.204,0.729-7.836,1.802
				c-1.633,1.069-2.45,2.708-2.45,4.915c0,1.602,0.476,2.839,1.428,3.716C43.872,44.859,45.3,45.298,47.204,45.298z"/>
			<path d="M89.961,13.953c1.535,0,2.801,0.108,3.796,0.324l-0.747,7.106c-1.082-0.26-2.207-0.39-3.375-0.39
				c-3.05,0-5.522,0.995-7.415,2.985c-1.893,1.991-2.839,4.575-2.839,7.755v18.755h-7.625V14.602h5.97l1.006,6.328h0.389
				c1.189-2.143,2.741-3.84,4.656-5.095C85.694,14.581,87.755,13.953,89.961,13.953z"/>
			<path d="M119.594,50.489l-1.525-4.997h-0.259c-1.73,2.187-3.472,3.672-5.224,4.463c-1.752,0.789-4.002,1.184-6.749,1.184
				c-3.527,0-6.279-0.951-8.259-2.855c-1.979-1.902-2.968-4.596-2.968-8.08c0-3.699,1.373-6.489,4.121-8.371
				c2.747-1.882,6.933-2.909,12.558-3.083l6.198-0.194v-1.914c0-2.293-0.536-4.008-1.606-5.145
				c-1.071-1.134-2.731-1.703-4.981-1.703c-1.839,0-3.602,0.271-5.289,0.812c-1.688,0.541-3.31,1.18-4.868,1.915l-2.466-5.452
				c1.947-1.016,4.078-1.789,6.392-2.32c2.314-0.529,4.5-0.794,6.555-0.794c4.564,0,8.008,0.995,10.335,2.984
				c2.325,1.991,3.488,5.117,3.488,9.378v24.174H119.594z M108.237,45.298c2.769,0,4.991-0.773,6.668-2.32
				c1.676-1.546,2.515-3.715,2.515-6.506v-3.114l-4.608,0.194c-3.591,0.13-6.203,0.729-7.836,1.802
				c-1.634,1.069-2.45,2.708-2.45,4.915c0,1.602,0.476,2.839,1.428,3.716C104.906,44.859,106.333,45.298,108.237,45.298z"/>
			<path d="M164.363,50.489h-7.658V28.425c0-2.769-0.557-4.835-1.671-6.198c-1.114-1.362-2.883-2.044-5.305-2.044
				c-3.202,0-5.555,0.958-7.058,2.871c-1.504,1.916-2.255,5.123-2.255,9.622v17.813h-7.625V0h7.625v12.817
				c0,2.056-0.13,4.25-0.389,6.587h0.486c1.039-1.73,2.482-3.071,4.332-4.023s4.007-1.428,6.474-1.428
				c8.696,0,13.044,4.38,13.044,13.142V50.489z"/>
			<path d="M204.155,32.48c0,5.863-1.504,10.438-4.511,13.726c-3.007,3.289-7.192,4.933-12.558,4.933
				c-3.353,0-6.316-0.757-8.891-2.271c-2.574-1.514-4.554-3.688-5.938-6.522c-1.386-2.833-2.077-6.121-2.077-9.864
				c0-5.818,1.493-10.361,4.478-13.628c2.985-3.266,7.193-4.899,12.623-4.899c5.191,0,9.302,1.672,12.33,5.012
				C202.64,22.309,204.155,26.814,204.155,32.48z M178.034,32.48c0,8.286,3.061,12.428,9.183,12.428
				c6.057,0,9.086-4.142,9.086-12.428c0-8.197-3.05-12.298-9.15-12.298c-3.202,0-5.522,1.061-6.96,3.181
				C178.752,25.483,178.034,28.522,178.034,32.48z"/>
			<path d="M234.407,40.269c0,3.504-1.277,6.192-3.829,8.063c-2.554,1.871-6.209,2.807-10.968,2.807
				c-4.781,0-8.621-0.725-11.52-2.174v-6.587c4.219,1.946,8.145,2.92,11.779,2.92c4.693,0,7.041-1.416,7.041-4.251
				c0-0.908-0.26-1.665-0.778-2.271c-0.52-0.604-1.374-1.232-2.563-1.882c-1.19-0.648-2.846-1.384-4.965-2.206
				c-4.132-1.601-6.928-3.201-8.388-4.803c-1.461-1.601-2.19-3.677-2.19-6.23c0-3.07,1.238-5.456,3.715-7.155
				c2.477-1.697,5.847-2.546,10.108-2.546c4.218,0,8.209,0.855,11.973,2.563l-2.466,5.743c-3.872-1.601-7.128-2.401-9.767-2.401
				c-4.023,0-6.035,1.147-6.035,3.439c0,1.125,0.524,2.077,1.573,2.855s3.337,1.85,6.863,3.212c2.963,1.148,5.115,2.196,6.457,3.148
				c1.341,0.952,2.336,2.049,2.985,3.294C234.082,37.051,234.407,38.538,234.407,40.269z"/>
			<path d="M254.522,44.974c1.859,0,3.721-0.292,5.581-0.876v5.743c-0.844,0.368-1.931,0.676-3.261,0.924
				c-1.331,0.249-2.71,0.374-4.138,0.374c-7.226,0-10.838-3.807-10.838-11.422V20.378h-4.899v-3.375l5.257-2.79l2.596-7.594h4.705
				v7.982h10.221v5.776h-10.221v19.209c0,1.839,0.459,3.195,1.379,4.073C251.823,44.535,253.029,44.974,254.522,44.974z"/>
			<path d="M279.962,51.139c-5.581,0-9.945-1.628-13.093-4.883c-3.147-3.257-4.722-7.739-4.722-13.45
				c0-5.862,1.461-10.47,4.381-13.823c2.921-3.353,6.933-5.029,12.038-5.029c4.738,0,8.479,1.439,11.228,4.315
				c2.747,2.877,4.121,6.836,4.121,11.876v4.121H270c0.108,3.483,1.049,6.16,2.823,8.031c1.773,1.87,4.272,2.807,7.496,2.807
				c2.119,0,4.094-0.2,5.922-0.6c1.827-0.401,3.79-1.066,5.889-1.996v6.197c-1.86,0.888-3.742,1.515-5.646,1.882
				C284.581,50.954,282.407,51.139,279.962,51.139z M278.567,19.729c-2.423,0-4.364,0.769-5.824,2.304
				c-1.46,1.537-2.331,3.776-2.612,6.717h16.289c-0.043-2.963-0.757-5.207-2.142-6.733C282.893,20.492,280.99,19.729,278.567,19.729
				z"/>
			<path d="M318.304,13.953c1.535,0,2.801,0.108,3.797,0.324l-0.747,7.106c-1.081-0.26-2.206-0.39-3.374-0.39
				c-3.051,0-5.522,0.995-7.415,2.985c-1.893,1.991-2.839,4.575-2.839,7.755v18.755h-7.625V14.602h5.97l1.006,6.328h0.39
				c1.189-2.143,2.742-3.84,4.656-5.095C314.038,14.581,316.098,13.953,318.304,13.953z"/>
		</g>
	</g>
</g>
</svg>
